<svg version="1.1" id="Layer_1" xmlns="http://www.w3.org/2000/svg" xmlns:xlink="http://www.w3.org/1999/xlink" x="0px" y="0px"
	 width="100%" viewBox="0 0 256 257" enable-background="new 0 0 256 257" xml:space="preserve">
<path fill="#FFEE2A" opacity="1.000000" stroke="none" 
	d="
M1.000000,253.000000 
	C1.000000,169.048355 1.000000,85.096718 1.000000,1.072541 
	C86.235786,1.072541 171.471649,1.072541 257.000000,1.072541 
	C257.000000,84.687332 257.000000,168.375015 256.743530,252.207245 
	C254.991348,254.234528 253.495667,256.117249 252.000000,258.000000 
	C170.645767,258.000000 89.291542,258.000000 7.792679,257.734741 
	C5.432030,255.979660 3.216015,254.489822 1.000000,253.000000 
M105.506577,126.009689 
	C116.327637,138.879852 126.828835,152.039841 138.111725,164.491516 
	C143.343414,170.265137 143.074066,176.211990 142.263901,182.831863 
	C133.574539,182.831863 125.162918,182.831863 116.272018,182.831863 
	C116.272018,178.583176 116.272018,174.655609 116.272018,170.497467 
	C108.896416,170.497467 102.010391,170.497467 94.697189,170.497467 
	C94.697189,177.965317 94.675064,185.105698 94.704163,192.245865 
	C94.727646,198.008621 101.638161,204.989197 107.332901,204.996246 
	C122.158104,205.014603 136.983337,205.010696 151.808563,204.998123 
	C157.311783,204.993454 164.261505,198.186676 164.285538,192.695145 
	C164.332184,182.034500 164.435806,171.370392 164.189972,160.715225 
	C164.137772,158.452652 163.232422,155.774445 161.802856,154.046707 
	C148.429428,137.883926 135.171371,121.604095 121.179665,105.985474 
	C115.856461,100.043289 115.882507,94.040321 116.722153,87.136810 
	C125.371773,87.136810 133.784607,87.136810 142.753510,87.136810 
	C142.753510,91.486229 142.753510,95.558838 142.753510,99.672714 
	C150.218536,99.672714 157.119598,99.672714 164.292419,99.672714 
	C164.292419,91.530579 164.395248,83.713348 164.248260,75.900833 
	C164.176697,72.097221 156.666504,65.022491 152.906799,65.013443 
	C137.415344,64.976166 121.923622,64.968300 106.432518,65.049049 
	C105.055687,65.056229 103.386017,65.411285 102.357986,66.235466 
	C97.311478,70.281281 93.403214,74.760597 94.559425,82.173531 
	C95.294983,86.889488 95.187225,91.874001 94.599548,96.632103 
	C93.179153,108.132469 95.966393,117.882423 105.506577,126.009689 
z"/>
<path fill="#000000" opacity="1.000000" stroke="none" 
	d="
M1.000000,253.499969 
	C3.216015,254.489822 5.432030,255.979660 7.324022,257.734741 
	C5.095226,258.000000 3.190453,258.000000 1.000000,258.000000 
	C1.000000,256.671478 1.000000,255.335709 1.000000,253.499969 
z"/>
<path fill="#000000" opacity="1.000000" stroke="none" 
	d="
M252.499969,258.000000 
	C253.495667,256.117249 254.991348,254.234528 256.743530,252.675903 
	C257.000000,254.578964 257.000000,256.157928 257.000000,258.000000 
	C255.670563,258.000000 254.335251,258.000000 252.499969,258.000000 
z"/>
<path fill="#343433" opacity="1.000000" stroke="none" 
	d="
M105.269073,125.744919 
	C95.966393,117.882423 93.179153,108.132469 94.599548,96.632103 
	C95.187225,91.874001 95.294983,86.889488 94.559425,82.173531 
	C93.403214,74.760597 97.311478,70.281281 102.357986,66.235466 
	C103.386017,65.411285 105.055687,65.056229 106.432518,65.049049 
	C121.923622,64.968300 137.415344,64.976166 152.906799,65.013443 
	C156.666504,65.022491 164.176697,72.097221 164.248260,75.900833 
	C164.395248,83.713348 164.292419,91.530579 164.292419,99.672714 
	C157.119598,99.672714 150.218536,99.672714 142.753510,99.672714 
	C142.753510,95.558838 142.753510,91.486229 142.753510,87.136810 
	C133.784607,87.136810 125.371773,87.136810 116.722153,87.136810 
	C115.882507,94.040321 115.856461,100.043289 121.179665,105.985474 
	C135.171371,121.604095 148.429428,137.883926 161.802856,154.046707 
	C163.232422,155.774445 164.137772,158.452652 164.189972,160.715225 
	C164.435806,171.370392 164.332184,182.034500 164.285538,192.695145 
	C164.261505,198.186676 157.311783,204.993454 151.808563,204.998123 
	C136.983337,205.010696 122.158104,205.014603 107.332901,204.996246 
	C101.638161,204.989197 94.727646,198.008621 94.704163,192.245865 
	C94.675064,185.105698 94.697189,177.965317 94.697189,170.497467 
	C102.010391,170.497467 108.896416,170.497467 116.272018,170.497467 
	C116.272018,174.655609 116.272018,178.583176 116.272018,182.831863 
	C125.162918,182.831863 133.574539,182.831863 142.263901,182.831863 
	C143.074066,176.211990 143.343414,170.265137 138.111725,164.491516 
	C126.828835,152.039841 116.327637,138.879852 105.269073,125.744919 
z"/>
</svg>